<?xml version="1.0" encoding="UTF-8"?>
<svg xmlns="http://www.w3.org/2000/svg" xmlns:xlink="http://www.w3.org/1999/xlink" width="75px" height="37px" viewBox="0 0 75 37" version="1.1">
<g id="surface1">
<path style=" stroke:none;fill-rule:nonzero;fill:rgb(98.039216%,73.725492%,1.960784%);fill-opacity:1;" d="M 54 20.039062 C 57.945312 17.75 61.878906 15.441406 65.839844 13.175781 C 69.597656 11.023438 74.019531 13.007812 74.871094 17.195312 C 75.363281 19.617188 74.292969 22.234375 72.128906 23.507812 C 65.035156 27.683594 57.929688 31.847656 50.789062 35.945312 C 48.578125 37.210938 46.300781 36.976562 44.289062 35.425781 C 42.242188 33.847656 41.597656 31.671875 42.078125 29.136719 C 42.625 27.210938 43.878906 25.921875 45.589844 24.957031 C 48.414062 23.363281 51.199219 21.683594 54 20.039062 "/>
<path style=" stroke:none;fill-rule:nonzero;fill:rgb(6.27451%,61.56863%,34.509805%);fill-opacity:1;" d="M 56.894531 18.375 C 52.960938 16.066406 49.011719 13.777344 45.089844 11.445312 C 41.367188 9.234375 40.859375 4.375 44.019531 1.535156 C 45.851562 -0.109375 48.628906 -0.480469 50.800781 0.777344 C 57.929688 4.894531 65.050781 9.03125 72.132812 13.230469 C 74.324219 14.53125 75.261719 16.640625 74.9375 19.179688 C 74.609375 21.757812 73.066406 23.410156 70.652344 24.257812 C 68.726562 24.742188 66.996094 24.289062 65.3125 23.277344 C 62.535156 21.597656 59.703125 20.003906 56.894531 18.375 "/>
<path style=" stroke:none;fill-rule:nonzero;fill:rgb(91.37255%,26.666668%,21.176471%);fill-opacity:1;" d="M 21.019531 16.742188 C 18.496094 18.191406 15.96875 19.640625 13.445312 21.09375 C 11.96875 21.945312 10.507812 22.824219 9.027344 23.660156 C 6.035156 25.347656 2.484375 24.359375 0.789062 21.390625 C -0.828125 18.554688 0.101562 14.882812 2.980469 13.183594 C 10.019531 9.035156 17.078125 4.914062 24.160156 0.839844 C 26.332031 -0.410156 28.585938 -0.253906 30.59375 1.238281 C 32.714844 2.816406 33.40625 5.035156 32.929688 7.636719 C 32.636719 8.265625 32.460938 9.003906 32.015625 9.5 C 31.296875 10.308594 30.480469 11.078125 29.570312 11.644531 C 26.753906 13.402344 23.875 15.050781 21.019531 16.742188 "/>
<path style=" stroke:none;fill-rule:nonzero;fill:rgb(26.274511%,52.156866%,95.294118%);fill-opacity:1;" d="M 18.125 18.367188 C 20.632812 19.855469 23.136719 21.339844 25.644531 22.820312 C 27.109375 23.6875 28.59375 24.527344 30.050781 25.40625 C 32.992188 27.179688 33.921875 30.777344 32.222656 33.746094 C 30.601562 36.578125 26.988281 37.601562 24.09375 35.933594 C 17.019531 31.847656 9.957031 27.734375 2.925781 23.574219 C 0.765625 22.300781 -0.226562 20.25 0.0507812 17.746094 C 0.34375 15.101562 1.898438 13.382812 4.367188 12.5 C 5.050781 12.445312 5.773438 12.230469 6.417969 12.367188 C 7.46875 12.59375 8.539062 12.921875 9.480469 13.4375 C 12.394531 15.023438 15.25 16.714844 18.125 18.367188 "/>
</g>
</svg>
